PathFileType	4	(X/Y/Z)	C:/Users/beibeiliu/ov580/test_trc/User2\sequence.15_training_dense_right.trc
DataRate	CameraRate	NumFrames	NumMarkers	Units	OrigDataRate	OrigDataStartFrame	OrigNumFrames
120	120	18	19	mm	120	1	273
Frame#	Time	ThumbCMC			ThumbMCP			ThumbIP			ThumbTip			IndexMCP			IndexPIP			IndexTip			MiddleMCP			MiddlePIP			MiddleTip			RingMCP			RingPIP			RingTip			PinkyMCP			PinkyPIP			PinkyTip			BackHand1			BackHand2			BackHand3	
		X0	Y0	Z0	X1	Y1	Z1	X2	Y2	Z2	X3	Y3	Z3	X4	Y4	Z4	X5	Y5	Z5	X6	Y6	Z6	X7	Y7	Z7	X8	Y8	Z8	X9	Y9	Z9	X10	Y10	Z10	X11	Y11	Z11	X12	Y12	Z12	X13	Y13	Z13	X14	Y14	Z14	X15	Y15	Z15	X16	Y16	Z16	X17	Y17	Z17	X18	Y18	Z18	
0	0	66.6431	-3.82152	77.1953	38.0835	-8.47101	57.4591	19.353	-16.483	28.6731	7.39568	-24.8249	9.41892	68.643	-0.201092	-7.77791	59.8796	-6.6323	-37.0422	51.2645	-10.7091	-59.5045	100.671	-1.05905	-18.2408	96.119	-7.28043	-48.3426	99.2341	-14.2674	-80.0081	123.766	-10.0893	-13.9265	127.016	-15.2593	-40.1163	131.911	-18.7313	-68.6728	145.08	-21.1391	2.83641	155.879	-27.5196	-19.3156	166.517	-28.5757	-38.2365	125.142	5.52512	40.5868	128.398	16.9367	73.314	92.7002	16.6059	59.8275	
1	0.00833333	62.6157	-4.59188	73.2199	40.7286	-10.5195	58.931	19.3188	-17.1021	28.0408	2.90671	-25.3744	12.7659	66.5119	-1.88578	-6.94501	55.7291	-5.85929	-35.6662	52.1773	-13.2631	-63.1426	94.6203	-1.80819	-16.5934	92.6493	-8.64891	-51.9783	95.8231	-15.0061	-81.7123	119.161	-10.8482	-16.1623	128.543	-17.0257	-36.7025	127.729	-19.9799	-68.2494	142.164	-22.5717	3.47396	154.363	-28.6078	-20.3422	161.562	-29.8546	-42.9377	122.767	3.9	40.862	126.798	14.6908	73.0317	89.9192	16.055	57.0398	
2	0.0166667	60.5191	-4.77945	78.5368	39.3893	-11.1553	56.4	16.0971	-16.8337	29.3294	4.2653	-24.9421	10.8154	65.0103	-2.47003	-7.56879	53.9788	-6.28315	-31.9385	51.709	-13.1033	-60.1945	92.4827	-2.62347	-21.8046	90.4988	-8.64158	-51.6529	94.1808	-15.83	-83.2339	120.086	-11.413	-14.8187	122.52	-16.9116	-37.2847	126.247	-21.4348	-67.3259	140.919	-21.6362	1.69376	151.879	-29.7994	-18.2001	159.404	-29.9786	-39.2013	121.766	3.58249	39.3254	127.885	14.5505	69.5182	90.4242	16.0526	58.048	
3	0.025	57.6579	-4.15	75.4122	35.3502	-9.9467	59.0678	15.008	-16.3691	27.6601	0.0573739	-24.9142	10.0067	61.514	-2.00756	-5.83037	51.7239	-7.4194	-36.3969	50.8391	-13.5595	-62.1999	94.9086	-2.48001	-20.2129	92.7085	-9.12816	-53.1057	94.863	-16.2417	-81.643	116.935	-10.2197	-17.0132	122.468	-16.3782	-41.647	123.122	-21.6269	-68.5577	138.89	-21.6766	2.59891	148.452	-29.5395	-17.0732	160.358	-30.4699	-42.8563	117.435	5.68244	38.8251	125.041	13.1457	72.2395	84.6543	15.0795	54.7696	
4	0.0333333	55.1115	-3.07205	74.1235	34.8818	-9.972	57.7823	13.3146	-16.2458	28.9642	-0.609796	-25.3327	9.25999	60.882	-2.01551	-9.88814	50.4991	-6.1261	-33.3981	49.4831	-14.0178	-61.2976	88.8177	-1.72877	-16.7657	88.6767	-9.9232	-52.7514	89.9039	-15.1374	-79.8134	114.485	-10.9777	-11.9855	117.925	-16.7107	-42.3984	121.838	-20.7177	-70.0081	138.131	-22.7444	5.4723	148.516	-29.12	-21.5537	158.444	-32.2207	-43.3738	116.876	4.96797	41.9842	126.491	14.6497	71.4012	88.9651	15.0506	57.8497	
5	0.0416667	54.365	-4.48499	73.328	35.5473	-11.5628	57.2553	14.0646	-18.4009	33.4551	-0.708744	-26.2775	13.0528	56.7632	-2.68692	-7.35225	52.5706	-7.64993	-36.0569	41.3358	-13.3179	-62.7566	89.6806	-2.48355	-16.8726	89.5612	-9.12687	-49.2684	87.4012	-15.3987	-77.9073	112.126	-11.1031	-15.397	119.247	-16.4418	-38.7704	117.626	-21.28	-65.9626	138.638	-23.2976	2.33214	144.158	-29.2245	-18.5158	158.592	-30.821	-43.7158	119.391	2.81232	39.1494	122.12	12.834	69.2628	86.8553	14.0465	54.2998	
6	0.05	55.0636	-6.23858	74.6094	30.6468	-10.8499	59.7627	7.38907	-17.2814	32.336	-6.55695	-26.6834	15.0334	56.0348	-3.32988	-7.17803	45.2057	-7.5252	-34.7021	44.461	-14.4887	-61.6761	84.6927	-2.39051	-17.4688	84.6079	-9.74106	-48.6981	85.1445	-16.4763	-79.4143	114.136	-11.6966	-14.7987	117.918	-17.3759	-38.6157	118.642	-21.6518	-65.4337	133.413	-23.4266	4.6068	146.316	-31.1135	-19.5975	156.041	-31.6833	-44.0157	114.499	4.3323	42.368	118.492	12.6943	72.0992	82.9679	13.2316	55.865	
7	0.0583333	52.546	-5.19911	79.026	29.121	-10.1608	59.4507	6.86092	-16.7734	33.3473	-8.23072	-24.7872	13.2464	51.9537	-1.82416	-7.16303	45.6444	-8.3238	-36.7907	39.0456	-14.0182	-63.6841	84.4422	-3.35298	-19.418	82.3069	-10.031	-50.318	85.1349	-17.0713	-83.6942	112.529	-12.4377	-15.5162	116.696	-17.4407	-40.0503	113.433	-20.4137	-65.9003	131.497	-22.7015	5.65882	140.15	-29.6948	-17.3342	153.443	-29.7089	-41.1613	111.649	5.20558	37.7729	117.859	14.1603	73.405	79.4591	15.3521	58.826	
8	0.0666667	52.3809	-6.57764	73.9701	26.707	-10.7784	60.1514	6.95752	-17.5315	34.7959	-9.87674	-25.6718	15.8319	50.8894	-3.2554	-8.46183	41.639	-7.12851	-34.7209	38.1077	-13.4925	-59.156	82.2775	-2.99139	-18.2527	79.7654	-10.7828	-52.6144	79.1777	-16.3699	-77.6288	106.248	-10.75	-12.1285	109.876	-17.0844	-37.6916	111.801	-20.3252	-69.0139	130.448	-22.6147	3.56067	136.925	-29.689	-21.0056	150.294	-31.5127	-39.4567	113.609	4.44533	38.686	118.346	12.2524	69.8117	80.6932	13.4074	59.3487	
9	0.075	48.7155	-5.7152	79.7075	24.1904	-11.8555	60.3121	3.19272	-17.2639	35.8744	-12.6751	-24.665	14.8181	50.0169	-2.82417	-8.15206	37.7025	-7.50282	-30.2263	33.0831	-15.1289	-60.789	75.4529	-2.09612	-20.179	75.3713	-10.2113	-51.8573	73.8197	-15.1912	-78.025	103.983	-10.6778	-12.2986	105.09	-16.5538	-37.8377	105.765	-20.172	-67.4782	129.601	-22.6758	3.38747	134.798	-28.6866	-20.7502	142.432	-28.4356	-43.0883	106.262	2.62994	42.2116	115.712	10.9396	68.9784	80.4072	14.724	60.0195	
10	0.0833333	48.7748	-5.82179	76.3877	20.1344	-9.88897	59.1973	-2.40322	-17.0859	35.2791	-14.6786	-25.302	14.0284	45.4853	-1.33097	-3.81163	33.3323	-7.25264	-33.8433	32.7902	-13.7613	-58.7315	74.5211	-2.05039	-19.4647	74.3544	-8.05707	-48.5581	71.4968	-15.4939	-78.7516	101.739	-10.1359	-16.5128	102.37	-15.0447	-39.4334	101.328	-19.4542	-68.0824	126.762	-22.5537	2.18217	130.64	-27.6986	-22.0153	139.778	-27.28	-47.5375	104.394	3.97879	43.3055	113.006	13.6449	72.3979	76.9481	12.9334	60.8964	
11	0.0916667	45.7796	-6.35613	80.8978	23.2229	-11.1986	60.503	-3.45448	-16.5165	32.0866	-18.917	-24.1505	12.8055	40.0717	-0.584617	-5.79279	32.3356	-6.07704	-33.9308	26.116	-15.3405	-60.7317	68.6315	-0.0335175	-16.2769	67.9371	-7.19154	-50.5409	62.916	-15.0099	-79.4424	97.058	-7.9074	-16.606	98.6036	-14.3367	-40.6151	94.0535	-20.5917	-71.4191	119.144	-19.8002	-3.16456	128.74	-25.8865	-26.241	137.044	-27.2404	-47.5025	103.192	4.45987	37.2139	109.969	12.8403	70.4039	70.0057	13.671	57.5148	
12	0.1	41.3775	-4.84721	80.4781	19.7949	-9.99926	60.4886	-3.7593	-15.5909	37.0981	-18.9036	-21.8149	16.2774	36.2992	2.73771	-7.65631	30.0057	-4.72826	-33.8752	21.4633	-14.5673	-55.9055	64.4752	2.74875	-20.9501	65.1453	-7.91918	-53.2755	60.6274	-19.4747	-79.7913	91.5552	-6.25689	-18.1562	94.1812	-14.2128	-45.2487	85.164	-22.2181	-71.846	118.592	-18.1972	-3.03438	122.955	-24.1474	-26.3141	129.841	-25.7168	-49.7506	99.5085	7.64763	38.594	107.691	11.9246	69.7616	69.4534	17.0455	61.3401	
13	0.108333	42.5412	-3.82093	76.6926	16.283	-8.03032	59.8849	-5.06425	-11.5478	35.0434	-21.1355	-18.5975	16.8522	38.6821	5.10232	-5.8472	29.6952	-2.15489	-34.7571	20.7493	-18.0008	-61.2772	67.2207	5.36632	-17.5293	61.7599	-5.50729	-50.3365	55.6976	-26.813	-80.107	90.1191	-3.01797	-19.604	83.0723	-10.4138	-43.5781	79.1772	-25.0949	-68.3293	116.274	-16.6047	-0.27777	121.458	-23.0751	-28.8079	123.941	-24.1985	-49.0348	97.431	8.38465	41.5507	105.928	13.2843	68.3934	67.0607	19.1808	61.9124	
14	0.116667	38.4056	-1.36835	77.0461	11.4176	-4.9295	62.2438	-8.40202	-8.19378	34.925	-24.4657	-13.1246	10.8239	34.4357	9.73006	-9.41085	29.1536	-2.74603	-37.4837	21.1652	-21.6347	-57.0567	59.866	8.33119	-18.8085	58.9897	-5.61767	-49.9861	49.811	-34.326	-73.1712	87.2049	0.781446	-18.2808	80.0646	-9.94843	-48.0213	68.1198	-32.5502	-67.8135	111.304	-13.7532	-1.46047	120.075	-19.1875	-26.218	122.217	-22.4821	-54.4714	98.0749	9.42074	39.2379	102.784	15.5412	70.608	65.1912	19.3039	58.5286	
15	0.125	34.6273	2.33932	76.4657	11.2574	-2.85433	59.692	-11.5925	-5.50332	34.492	-24.6423	-11.4372	13.0388	34.1702	11.8886	-9.7104	27.5161	-4.64195	-37.8277	21.9102	-30.0659	-52.3095	59.1451	9.70624	-21.7694	51.1309	-9.83091	-51.6306	43.9843	-41.1629	-62.7317	80.359	4.7074	-18.9376	80.8958	-8.36243	-45.686	65.1521	-38.4019	-60.012	109.158	-11.4625	-2.82857	115.409	-17.7127	-28.3585	116.996	-21.5632	-54.733	97.8183	11.9385	39.5689	104.592	16.547	67.3012	64.9317	21.4251	61.6017	
16	0.133333	35.5874	2.23018	75.2872	7.71705	-0.675367	57.2585	-11.5073	-3.53036	28.2913	-25.8074	-9.61802	7.23466	34.6786	13.1153	-12.2016	27.7887	-5.65544	-37.2893	26.5509	-40.1948	-42.8841	57.9038	13.7679	-19.4478	50.6758	-8.96136	-49.0053	46.1291	-46.7468	-48.5037	80.1991	6.99648	-15.1895	74.5149	-10.1755	-46.1567	58.7966	-42.327	-48.3146	106.908	-9.5915	-1.40792	110.197	-15.9599	-32.8759	112.157	-20.6008	-57.9368	94.0424	14.2738	40.1053	103.059	17.8038	70.568	64.241	22.8801	61.7618	
17	0.141667	30.2854	5.56122	72.8776	8.0824	0.271467	51.3504	-15.3867	-2.50461	28.7263	-25.9516	-7.75862	5.94479	36.1586	14.9626	-14.2252	30.0373	-7.25653	-37.1171	24.9937	-39.3969	-30.538	57.9264	13.9779	-24.161	48.9013	-13.8889	-47.8042	38.106	-46.4357	-32.7327	76.7399	10.0386	-20.3065	71.9141	-13.3933	-45.9114	54.9184	-39.9346	-35.8857	102.581	-5.87979	-7.72623	107.796	-13.2009	-35.3792	112.937	-17.5945	-57.6502	93.1629	16.0069	38.2154	100.829	18.6242	71.3576	59.3085	25.4821	61.099	
